<svg width="1275" height="220" viewBox="0 0 1275 220" fill="none" xmlns="http://www.w3.org/2000/svg">
<path fill-rule="evenodd" clip-rule="evenodd" d="M1437 32.3011V0H1174.54L1174.2 125.436H1404.71V187.055H1174.56V219.34L1437 218.971V93.1345H1206.86V32.3011H1437ZM1004.3 187.055H806.089V0H773.78V219.356H1036.22V0H1004.3V187.055ZM419.191 32.3011H617.423V93.1345H419.191V32.3011ZM386.898 219.084L419.191 219.629V125.42L575.565 125.837L614.699 218.955H646.036L608.847 125.821H649.326V0H386.898V219.084ZM0 32.3011H230.135V93.1345H0V218.955H32.2929V125.436H230.135V218.955H262.428V0H0V32.3011Z" fill="#FAFAFA"/>
</svg>
