<svg width="550" height="84" viewBox="0 0 550 84" fill="none" xmlns="http://www.w3.org/2000/svg">
<path fill-rule="evenodd" clip-rule="evenodd" d="M550 12.354V0H449.545L449.415 47.9746H537.64V71.5417H449.552V83.8896L550 83.7485V35.6206H461.918V12.354H550ZM384.389 71.5417H308.524V0H296.158V83.8957H396.607V0H384.389V71.5417ZM160.442 12.354H236.313V35.6206H160.442V12.354ZM148.082 83.7915L160.442 84V47.9684L220.293 48.1279L235.271 83.7424H247.265L233.031 48.1218H248.524V0H148.082V83.7915ZM0 12.354H88.0824V35.6206H0V83.7424H12.3598V47.9746H88.0824V83.7424H100.442V0H0V12.354Z" fill="#18181A"/>
</svg>
