<svg width="490" height="431" viewBox="0 0 490 431" fill="none" xmlns="http://www.w3.org/2000/svg">
<path fill-rule="evenodd" clip-rule="evenodd" d="M454.551 383.921H419.085C412.16 362.899 401.912 339.539 386.399 315.918C325.305 222.904 225.916 191.404 187.506 181.465C204.877 162.879 222.05 151.109 234.223 144.211C273.209 122.126 324.055 111.37 389.607 111.37H454.551V383.921ZM84.2178 399.532H46.6466C48.7521 321.738 64.9881 254.127 94.976 198.27C127.349 138.113 170.546 104.864 201.044 87.6178C262.747 52.6355 334.139 47.0285 398.424 46.3092V76.4855H389.607C317.689 76.4855 261.118 88.7784 216.556 113.985C173.803 138.244 77.7531 213.701 84.2178 399.532ZM454.551 11V76.4855H433.923V11.3596H416.174C354.026 11.3596 283.77 13.9261 218.152 40.5878L186.173 55.8558L186.124 55.8885C151.415 75.0307 100.947 112.677 63.7049 181.972C46.2024 214.437 33.1414 250.334 24.2914 289.469L16.9548 330.189C13.0069 357.733 11 386.7 11 416.958V431H164.213V399.532H119.667C116.278 308.431 139.308 247.212 167.075 206.917C195.319 212.933 235.193 225.258 276.17 252.214C297.374 266.175 332.527 289.845 359.85 334.521C376.859 362.327 384.787 388.351 388.735 406.087L392.404 418.789H490V11H454.551Z" fill="#18181A"/>
<path fill-rule="evenodd" clip-rule="evenodd" d="M443.551 372.921H408.085C401.16 351.899 390.912 328.539 375.399 304.918C314.305 211.904 214.916 180.404 176.506 170.465C193.877 151.879 211.05 140.109 223.223 133.211C262.209 111.126 313.055 100.37 378.607 100.37H443.551V372.921ZM73.2178 388.532H35.6466C37.7521 310.738 53.9881 243.127 83.976 187.27C116.349 127.113 159.546 93.8637 190.044 76.6178C251.747 41.6355 323.139 36.0285 387.424 35.3092V65.4855H378.607C306.689 65.4855 250.118 77.7784 205.556 102.985C162.803 127.244 66.7531 202.701 73.2178 388.532ZM443.551 0V65.4855H422.923V0.359631H405.174C343.026 0.359631 272.77 2.92609 207.152 29.5878L175.173 44.8558L175.124 44.8885C140.415 64.0307 89.9472 101.677 52.7049 170.972C35.2024 203.437 22.1414 239.334 13.2914 278.469L5.95483 319.189C2.00689 346.733 0 375.7 0 405.958V420H153.213V388.532H108.667C105.278 297.431 128.308 236.212 156.075 195.917C184.319 201.933 224.193 214.258 265.17 241.214C286.374 255.175 321.527 278.845 348.85 323.521C365.859 351.327 373.787 377.351 377.735 395.087L381.404 407.789H479V0H443.551Z" fill="white"/>
</svg>
