<svg width="87" height="568" viewBox="0 0 87 568" fill="none" xmlns="http://www.w3.org/2000/svg">
<path fill-rule="evenodd" clip-rule="evenodd" d="M12.7676 -5.5809e-07L-2.48281e-05 0L-2.02934e-05 103.742L49.5807 103.877L49.5807 12.7643L73.9368 12.7643L73.9368 103.736L86.6981 103.736L86.5523 -3.78332e-06L36.8131 -1.60915e-06L36.8131 90.9651L12.7676 90.9651L12.7676 -5.5809e-07ZM73.9368 171.031L73.9368 249.379L-1.39274e-05 249.379L-1.33692e-05 262.149L86.7044 262.149L86.7044 158.414L-1.79036e-05 158.414L-1.73521e-05 171.031L73.9368 171.031ZM12.7676 402.307L12.7676 323.953L36.8131 323.953L36.8131 402.307L12.7676 402.307ZM86.5967 415.071L86.8122 402.307L49.5744 402.307L49.7392 340.498L86.5459 325.029L86.5459 312.643L49.7328 327.342L49.7328 311.342L-1.12189e-05 311.342L-6.68472e-06 415.072L86.5967 415.071ZM12.7676 568L12.7676 477.035L36.8131 477.035L36.8131 568L86.546 568L86.546 555.236L49.5807 555.236L49.5807 477.035L86.546 477.035L86.546 464.271L-4.53416e-06 464.271L0 568L12.7676 568Z" fill="#FAFAFA"/>
</svg>
