<svg width="65" height="65" viewBox="0 0 65 65" fill="none" xmlns="http://www.w3.org/2000/svg">
<rect x="65" width="65" height="65" transform="rotate(90 65 0)" fill="#18181A"/>
<path d="M33.2429 7.05924L31.4787 7.21994L29.7104 7.86279L28.1591 8.84254L26.6652 10.1701L25.5134 11.8154L24.6003 13.6405L24.0091 15.7525L23.6671 17.9796L23.7492 20.119L24.2551 22.3105L25.0137 24.2493L26.0994 26.0869L27.4197 27.572L28.8914 28.7166L30.6023 29.531L32.3464 29.9274H34.1384L35.8902 29.5295L37.4983 28.7254L39.0682 27.5689L40.3854 26.0869L41.4716 24.2493L42.2219 22.3322L42.6446 20.1324L42.7278 17.9564L42.473 15.7437L41.8845 13.6405L40.9786 11.8304L39.7312 10.167L38.3267 8.8446L36.7005 7.86898L34.9921 7.21839L33.2424 7.05924H33.2429ZM31.1547 5.18138L33.1499 5H33.3359L35.4825 5.19533L37.5092 5.96683L37.6704 6.04745L39.5839 7.19566L41.2034 8.72006L41.3207 8.85338L42.6808 10.6672L42.7774 10.8243L43.7752 12.8189L43.8481 13.0008L44.4827 15.2678L44.5147 15.429L44.7865 17.7864L44.7906 17.9399L44.7002 20.2973L44.6842 20.4549L44.231 22.8123L44.1783 22.9942L43.3624 25.0798L43.29 25.2291L42.1108 27.2237L41.9935 27.385L40.4748 29.0938L38.6584 30.4322L38.5091 30.5211L36.5806 31.4853L34.3415 31.9943H32.1448L29.8996 31.4838L27.8016 30.4849L26.0803 29.1465L25.9433 29.0174L24.4923 27.385L24.375 27.2237L23.1963 25.2291L23.124 25.0798L22.308 22.9942L22.2636 22.8484L21.7194 20.491L21.6952 20.2973L21.6047 17.9399L21.6125 17.7502L21.9747 15.3928L22.0031 15.2678L22.6377 13.0008L22.7106 12.8189L23.7084 10.8243L23.7849 10.6951L25.131 8.77225L26.8445 7.24888L26.9815 7.1476L28.7968 6.00146L31.0178 5.1943L31.1552 5.18138H31.1547Z" fill="white"/>
<path d="M29.0854 29.3083V32.7633H27.0173V29.3083H29.0854Z" fill="white"/>
<path d="M37.3637 37.7591L33.2649 41.8564L29.165 37.7591L30.6181 36.2972L33.2644 38.9419L35.9101 36.2972L37.3637 37.7591Z" fill="white"/>
<path d="M25.5054 9.34256L33.531 11.4912C33.9558 11.6044 34.3775 11.6896 34.7908 11.7434C35.1991 11.7971 35.6285 11.8245 36.0724 11.8245C37.0093 11.8245 37.927 11.6948 38.7987 11.4436C39.6726 11.192 40.5169 10.8143 41.3045 10.3182L42.4036 12.0632C41.4605 12.6565 40.4358 13.1138 39.3646 13.4223C38.2892 13.7318 37.1813 13.892 36.0729 13.892C35.5711 13.892 35.0523 13.8569 34.5247 13.7871C34.0002 13.7184 33.4892 13.6176 32.9983 13.4864L24.9727 11.3377L25.506 9.34256H25.5054Z" fill="white"/>
<path d="M39.5114 29.3083V32.7633H37.4438V29.3083H39.5114Z" fill="white"/>
<path d="M32.5916 38.9116L29.7134 53.5376L33.2639 57.0861L36.8145 53.5376L33.9362 38.9116L35.9639 38.5157L39.0535 54.2145L33.2639 60L27.4753 54.2145L30.5639 38.5157L32.5916 38.9116Z" fill="white"/>
<path d="M44.7367 51.1888L55.0008 48.4397L52.8093 40.2638C52.5773 39.3977 52.1241 38.6272 51.5148 38.019C50.903 37.4077 50.13 36.953 49.2639 36.7209L38.6204 33.87L33.2654 36.9602L27.9104 33.87L17.2669 36.7209C16.4008 36.9524 15.6288 37.4061 15.018 38.0164C14.4078 38.6308 13.9525 39.4013 13.7215 40.2638L11.5295 48.4397L21.7941 51.1888L21.2609 53.184L9 49.9L11.7269 39.7305C12.0545 38.5084 12.6958 37.4201 13.5588 36.5566C14.4279 35.6926 15.5146 35.0524 16.7341 34.7258L28.1946 31.6563L33.2664 34.5837L38.3388 31.6563L49.7987 34.7258C51.0172 35.0524 52.1049 35.6931 52.97 36.5571C53.8371 37.4232 54.4794 38.5125 54.806 39.7305L57.5329 49.9L45.272 53.184L44.7387 51.1888H44.7367Z" fill="white"/>
</svg>
