<svg width="65" height="65" viewBox="0 0 65 65" fill="none" xmlns="http://www.w3.org/2000/svg">
<rect x="65" y="3.8147e-06" width="65" height="65" transform="rotate(90 65 3.8147e-06)" fill="#18181A"/>
<path d="M42.4906 31.7264H44.1959L44.7537 31.5406H45.0658L45.2893 31.4844L46.2065 31.1802L46.4883 30.9923L46.7728 30.8973L47.0483 30.7132L47.3285 30.6203L47.948 30.2068L48.0727 30.0821L48.2383 29.9494L48.4193 29.8289L48.5387 29.7095L48.7043 29.5768L48.8083 29.5078L48.838 29.4627C48.6178 29.3496 48.6618 29.3799 48.3964 29.3799L47.6348 29.0036L47.4395 28.8082L46.8896 28.5381L46.6948 28.3433L46.5164 28.2541L45.344 27.0854L45.2473 26.8916L45.0643 26.709L44.9756 26.5302L44.7914 26.346C44.5892 25.9431 44.3642 25.5291 44.1879 25.1157L44.1189 24.9092L43.9433 24.5594V24.371L43.8504 24.1842V24.0037L43.7575 23.8169V23.5303L43.6641 23.3439V20.1285L43.5924 19.7676L43.5717 19.5643V19.1748L43.5001 18.7475L43.3127 17.816L43.292 17.5697L43.1986 17.3834V17.1C43.1301 16.9216 43.0733 16.7369 43.0128 16.5554C43.0128 16.2778 42.9996 16.3521 42.8844 16.0825L42.7331 15.6292C42.7331 15.4132 42.7533 15.4732 42.6588 15.2832L42.5362 14.9397L42.4189 14.6855L42.3456 14.4663L42.1975 14.1706L42.1392 14.0295L42.0744 13.8347L41.8409 13.3718L41.7055 13.1691C41.61 13.0024 41.5277 12.8315 41.4423 12.6601L41.2512 12.469C41.1912 12.348 41.1185 12.2169 41.0665 12.0937L40.8802 11.908L40.7862 11.7196L40.5968 11.5295L40.4057 11.1538L40.222 10.9701L40.1302 10.7849L39.1977 9.85336L39.1865 9.83108L39.1642 9.81993L38.8808 9.53545L38.5305 9.35976L38.4397 9.17769L38.2338 9.07525L37.9509 8.7913L37.2301 8.43568L37.1356 8.24566L36.5709 7.96117H36.3814C36.1314 7.83697 35.883 7.70798 35.6304 7.58909H35.4477L35.262 7.49569H35.0778L34.891 7.4028H34.7074L34.5216 7.30937H34.3278L34.1416 7.21649H33.7743L33.5874 7.1236H32.0333L31.7541 7.21649H31.4638L31.278 7.30937H31.0923L30.9054 7.4028H30.7191L30.5334 7.49569H30.3471L30.1602 7.58909H29.9798L29.2298 7.96117H29.0467C28.9028 8.03336 28.6561 8.17401 28.5106 8.22762L28.2219 8.51584C28.1125 8.57051 27.9607 8.65913 27.8514 8.69681L27.7527 8.79553L27.5743 8.88471L27.3869 9.07154L27.2017 9.16391L26.9273 9.43777L26.732 9.53596L25.9454 10.3231L25.7723 10.6665L25.5871 10.7599L25.5685 10.7971L25.3913 10.9744L25.2979 11.1606L25.1057 11.3533L25.0171 11.5295L24.8366 11.7105L24.6376 12.1006L24.4513 12.287L24.2687 12.6516L24.0877 12.8326L24.0054 13.0019L23.9407 13.1951L23.8823 13.332L23.7055 13.6839L23.532 13.858L23.4752 14.0289L23.4168 14.1701L23.2687 14.4658L23.1955 14.685L23.0851 14.9291L23.0134 15.1457L22.9741 15.2348V15.5278L22.791 15.8956L22.695 16.1658V16.4519C22.5373 16.7666 22.5087 16.7141 22.5087 17.0257C22.4487 17.2056 22.3919 17.3903 22.3223 17.5665L22.3016 17.8155L22.136 18.6429V19.0978L22.1154 19.3053L22.0432 19.6673V20.0282L22.0225 20.2358L21.9498 20.5983V23.4453L21.8569 23.7256V23.9947L21.6706 24.3673V24.5536L21.496 24.9034L21.4269 25.1104L21.3686 25.2553L20.824 26.3385L20.6387 26.5254L20.4546 26.8948L20.2656 27.0848L20.0926 27.4288L19.7831 27.5843L19.6244 27.9006L19.2757 28.0747L19.0889 28.2615L18.9031 28.3544L18.7168 28.5407C18.5847 28.6065 18.2949 28.7721 18.1754 28.8066L17.9886 28.9935L17.2206 29.3783H17.0412L16.892 29.4526L16.7981 29.4897L16.8103 29.5088L16.9106 29.5752L17.072 29.7079L17.1887 29.8241L17.6558 30.1341L17.8214 30.2668L17.9462 30.3915L18.2922 30.6208L18.5661 30.7116L18.8421 30.8958L19.126 30.9908L19.4084 31.1787L20.0284 31.3851C20.221 31.4334 20.3988 31.4764 20.5862 31.539H20.8601L21.2385 31.6648L21.479 31.7248H23.1238V33.8484H21.2284C20.9954 33.79 20.7725 33.7386 20.5448 33.6627H20.2603L19.8691 33.5321C19.3824 33.4095 18.9318 33.2497 18.4562 33.0905L18.1808 32.9074L17.9058 32.815L17.6235 32.6271L17.3389 32.5321L16.6681 32.0831L16.5061 31.9546L16.3867 31.8352L15.9234 31.5242L15.7658 31.3957L15.6554 31.2853L15.2817 31.0369L15.0423 30.6771L14.0981 29.7286L14.0057 29.4505L12.2653 27.7207H15.1458L15.3321 27.6278H15.5258L15.7116 27.5344C16.1463 27.5344 16.1198 27.4686 16.5449 27.2547H16.7243L16.8968 27.0816L17.4727 26.7897L17.6584 26.6029L17.8448 26.5105L18.0311 26.3232L18.055 26.3115L18.0698 26.2818L18.4806 25.871L18.5173 25.8524L18.5316 25.8242L18.7142 25.6417L18.9037 25.2659L19.0895 25.0796L19.4472 24.362L19.5469 24.0823V23.8864L19.7333 23.5138V23.4103L19.8262 23.1306V20.4942L19.8468 20.2867L19.9196 19.9242V19.5633L19.9402 19.3558L20.0124 18.9938V18.5389L20.0331 18.3314L20.1987 17.5039V17.0798C20.35 16.7767 20.385 16.8171 20.385 16.5182C20.4445 16.3399 20.4997 16.1525 20.5714 15.9795V15.686L20.7508 15.3293L20.8505 15.0432V14.7603L21.0145 14.4318L21.0904 14.203L21.212 13.9398L21.281 13.7333C21.3457 13.581 21.4174 13.4398 21.4917 13.2922L21.5602 13.0857L21.6185 12.9446L21.7943 12.5932L21.9673 12.4202L22.0803 12.107L22.3436 11.581L22.5357 11.3905L22.7257 11.0099L22.912 10.8236L23.084 10.4696L23.2767 10.2769L23.3743 10.0816L23.5548 9.90167L23.6477 9.71484L23.843 9.52005L24.0102 9.18513L24.197 9.0917L24.2114 9.06304L25.473 7.8014L25.6498 7.71331L25.9417 7.42351L26.1216 7.33487L26.3074 7.14856L26.5006 7.05303L26.5876 6.96492C26.7044 6.90653 26.8562 6.84124 26.9629 6.77277L27.2325 6.50262L28.56 5.83755H28.741L29.4888 5.46549H29.6799L29.8667 5.37206H30.053L30.2388 5.27918H30.4251L30.6119 5.18577H30.7977L30.9835 5.09289H31.4394L31.7181 5H34.0746L34.2615 5.09289H34.6383L34.8252 5.18577H35.0041L35.1903 5.27918H35.3782L35.565 5.37206H35.7535L35.9393 5.46549H36.1213C36.3681 5.58916 36.6218 5.70857 36.8649 5.83755H37.0523L38.7216 6.66874L38.8166 6.85928L39.2104 7.05674L39.4864 7.33169L40.0272 7.60397L40.1206 7.7908L40.1509 7.80619L40.4168 8.07635L40.7677 8.25045L40.9423 8.6018L41.8743 9.53226L41.9672 9.71961L42.1572 9.90911C42.2172 10.0296 42.2857 10.1549 42.3387 10.2775L42.5208 10.4606L42.6137 10.6453L42.7995 10.8305L42.9879 11.2021L43.1683 11.3825L43.4979 12.0417L43.7214 12.3862L43.9964 12.9408L44.0547 13.0857L44.1232 13.2922C44.1975 13.4398 44.2691 13.581 44.3339 13.7333L44.4072 13.9525L44.5202 14.203L44.585 14.3973L44.6518 14.5321L44.706 14.6648L44.8573 15.1165C44.8573 15.4015 44.8684 15.3203 44.9857 15.5958L45.137 16.0475C45.137 16.3537 45.1673 16.3022 45.3228 16.6143V16.9009L45.4162 17.0867V17.5039C45.5117 17.9832 45.5988 18.4423 45.6794 18.9242L45.6959 19.0983V19.4646L45.7675 19.8255L45.7882 20.0288V22.8615L45.8816 23.0473V23.3201L45.9745 23.5064V23.6969L46.0674 23.8837V24.078L46.1762 24.3827C46.2829 24.596 46.4395 24.8614 46.5233 25.0737L46.7118 25.2622L46.8089 25.4569L46.9989 25.6464L47.0881 25.8253L47.7786 26.5201L47.9724 26.6167L48.1496 26.794L48.7176 27.0822L48.8906 27.2552H48.9861L49.4394 27.4065L49.5763 27.4606L49.7255 27.5349H49.9027L50.0891 27.6283H50.2748L50.4606 27.7212H51.8411V29.193L51.477 29.7403L51.3443 29.9059L51.2191 30.0311L51.0997 30.2095L50.9712 30.3671L50.7854 30.5534L50.6235 30.6861L50.519 30.7561L50.3295 31.0396L49.9733 31.2768L49.8545 31.3957L49.6889 31.5284L49.5079 31.6489L49.3884 31.7683L49.2266 31.8968L48.2706 32.5337L47.9909 32.6271L47.7085 32.815L47.4341 32.9074L47.1581 33.0905C46.535 33.2996 45.9565 33.5024 45.3179 33.6627H45.0707L44.5112 33.8484H42.4911V31.7248L42.4906 31.7264ZM33.9239 44.2436V60H31.8003V44.2436H33.9239ZM41.4258 41.2086L36.6049 46.027L32.8618 41.6757L29.1178 46.027L24.2973 41.2086L25.7904 39.7071L29.0005 42.9156L31.3253 40.2134L27.6157 37.3887L16.6431 41.1571C15.994 41.3801 15.4117 41.7473 14.9377 42.2218C14.4691 42.6857 14.1055 43.259 13.8804 43.9012L11.5992 52.41L24.3923 55.8361L23.8446 57.8854L9 53.91C9.94955 50.3777 10.8317 46.7313 11.864 43.2377C12.1915 42.2829 12.7361 41.4246 13.4383 40.723C14.1347 40.0223 14.994 39.4794 15.9547 39.1498L26.7431 35.4444V32.6844L25.603 31.0688L25.5245 30.9324L24.593 29.0699L24.5309 28.9165L23.8791 26.8672L23.8414 26.7218L23.4688 24.4872L23.4566 24.3545L23.3637 21.9905L23.5495 19.7554L23.5824 19.5771L24.1413 17.4349L24.1869 17.3022L25.0245 15.2534L25.0993 15.1L26.1248 13.4233L26.2283 13.2821L27.5281 11.7822L29.1284 10.6819L29.3068 10.5827L30.9437 9.86557L32.8035 9.64743L34.6489 9.86399L36.4955 10.6246L38.0878 11.7923L39.3792 13.2821L39.462 13.3899L40.6461 15.1674C41.2592 16.8404 41.576 17.8568 42.025 19.5776L42.058 19.7559L42.2437 21.991L42.1503 24.3551L42.1381 24.4835L41.7666 26.7181L41.7289 26.8677L41.0766 28.917L41.0145 29.0704L40.083 30.9329L40.0044 31.0693L38.979 32.522V35.445L49.768 39.1503C50.7297 39.4799 51.5879 40.0229 52.2864 40.7214C52.9865 41.4252 53.5311 42.284 53.8581 43.2383C54.8904 46.7308 55.7747 50.3782 56.7221 53.9105L41.878 57.8859L41.3303 55.8366L54.1234 52.4105L51.8416 43.9018C51.6171 43.259 51.2536 42.6858 50.7891 42.2224C50.3109 41.7484 49.7287 41.3811 49.0795 41.1577L38.1064 37.3892L34.3979 40.214L36.7222 42.9161L39.9322 39.7076L41.4253 41.2092L41.4258 41.2086ZM32.8618 38.7204L36.8554 35.679V34.3484L35.6229 35.0872L33.7583 35.5262H31.942L30.0854 35.0888L28.8668 34.4036V35.679L32.8613 38.7204H32.8618ZM32.804 11.7817L31.4956 11.9351L30.2473 12.4817L28.9517 13.3724L27.888 14.5995L26.9443 16.1425L26.1752 18.0235L25.6583 20.0054L25.4825 22.121L25.5685 24.1921L25.9225 26.3163L26.5208 28.1968L27.3721 29.9L28.3811 31.3299L29.5912 32.3782L30.8646 33.0942L32.175 33.4026H33.5258L34.8278 33.0963L35.9976 32.3946L37.2264 31.3299L38.2354 29.9L39.0867 28.1968L39.687 26.3115L40.0384 24.1974L40.1249 22.121L39.9492 20.0054L39.4312 18.0193L38.7454 16.135L37.7306 14.6123L36.6473 13.3623L35.4451 12.4802L34.1246 11.9366L32.8035 11.7817H32.804Z" fill="white"/>
</svg>
